<?xml version="1.0" standalone="no"?>
<!DOCTYPE svg PUBLIC "-//W3C//DTD SVG 20010904//EN"
 "http://www.w3.org/TR/2001/REC-SVG-20010904/DTD/svg10.dtd">
<svg version="1.0" xmlns="http://www.w3.org/2000/svg"
 width="500.000000pt" height="500.000000pt" viewBox="0 0 500.000000 500.000000"
 preserveAspectRatio="xMidYMid meet">
<metadata>
Created by potrace 1.14, written by Peter Selinger 2001-2017
</metadata>
<g transform="translate(0.000000,500.000000) scale(0.100000,-0.100000)"
fill="#000000" stroke="none">
<path d="M0 3406 c0 -877 2 -1601 5 -1608 4 -10 20 -13 56 -11 38 3 56 0 70
-13 19 -17 25 -35 12 -33 -27 4 -35 -1 -23 -15 6 -8 19 -12 28 -9 15 6 15 5 3
-11 -12 -14 -12 -19 -2 -25 19 -12 -12 -33 -35 -24 -16 6 -17 4 -6 -9 10 -13
10 -17 0 -20 -19 -7 -80 11 -73 21 3 5 -4 7 -15 4 -20 -5 -20 -14 -20 -829 l0
-824 2500 0 2500 0 0 2500 0 2500 -1154 0 c-1013 0 -1155 -2 -1166 -15 -13
-16 -35 -21 -25 -6 9 15 -13 24 -41 17 l-25 -7 23 -20 c19 -17 19 -20 4 -15
-13 5 -17 2 -13 -8 7 -18 -18 -40 -34 -30 -9 5 -10 2 -6 -9 4 -11 2 -14 -9
-10 -9 3 -12 0 -9 -9 5 -12 -94 -118 -111 -118 -3 0 -18 -12 -33 -27 -15 -16
-61 -57 -101 -93 -40 -36 -87 -78 -105 -95 -18 -16 -74 -69 -126 -117 -206
-191 -206 -190 -173 -182 16 4 63 20 104 37 157 62 229 82 475 134 87 19 389
23 406 6 6 -6 -3 -34 -22 -71 -47 -95 -208 -246 -429 -404 -99 -71 -320 -221
-363 -247 -37 -23 -38 -23 -59 -5 -11 11 -46 53 -78 94 -61 79 -95 116 -85 88
7 -19 -6 -29 -73 -56 -92 -37 -193 -113 -328 -247 -126 -125 -224 -244 -224
-273 0 -7 21 8 47 33 53 54 120 101 130 92 3 -4 -13 -44 -35 -89 -76 -153 -94
-238 -38 -183 17 18 38 19 53 4 6 -6 21 -16 34 -23 12 -6 31 -28 42 -49 16
-32 24 -38 43 -34 16 3 25 -1 29 -13 3 -10 23 -30 45 -44 44 -29 48 -37 25
-56 -8 -7 -15 -26 -15 -42 0 -33 -40 -95 -97 -150 -35 -35 -156 -98 -186 -98
-9 0 -20 39 -36 123 -49 259 -81 379 -128 473 -24 50 -56 128 -71 172 l-27 80
-49 -45 c-68 -62 -122 -96 -138 -87 -7 4 -10 3 -5 -1 4 -5 0 -17 -10 -27 -29
-32 -41 4 -42 126 -1 60 -4 113 -8 119 -4 6 -6 45 -4 87 1 60 -2 80 -14 90
-13 11 -13 15 -3 22 10 6 10 10 -2 18 -10 7 -12 12 -4 18 12 8 12 40 0 60 -6
10 -11 10 -21 2 -8 -7 -15 -7 -19 -1 -4 5 -2 13 4 16 8 5 8 11 1 19 -19 22 2
27 24 6 l21 -20 0 59 c0 33 -4 57 -8 55 -5 -3 -16 2 -25 11 -13 13 -14 18 -3
25 10 6 8 11 -9 21 -22 14 -29 39 -11 39 6 0 10 -4 10 -10 0 -5 5 -10 11 -10
8 0 8 4 0 14 -6 8 -11 18 -10 22 5 27 -2 35 -23 28 -22 -6 -22 -6 -5 13 16 19
15 53 -2 53 -4 0 -8 14 -8 30 0 17 4 30 9 30 4 0 8 -5 8 -12 0 -6 3 -8 7 -5 3
4 -1 15 -9 24 -20 24 -20 93 1 117 9 11 10 16 4 12 -19 -10 -39 4 -22 15 12 8
11 11 -1 19 -10 7 -12 12 -4 18 13 8 12 40 0 61 -5 8 -4 16 2 20 8 4 8 11 1
21 -8 11 -12 12 -16 3 -9 -24 -22 -13 -21 17 1 22 5 29 15 26 8 -3 13 2 13 14
0 12 -5 17 -13 14 -10 -3 -13 9 -13 46 0 27 5 50 10 50 6 0 2 8 -8 18 -13 12
-20 14 -23 5 -7 -18 -23 -16 -23 2 0 8 5 15 11 15 8 0 7 5 -1 15 -16 19 -5 32
14 16 11 -9 15 -8 19 3 7 18 -6 28 -26 20 -12 -4 -15 3 -15 30 0 35 12 48 21
24 3 -10 7 -10 17 -1 17 16 4 32 -22 25 -17 -4 -20 -2 -15 12 4 11 -2 26 -18
42 l-24 24 -281 0 -280 0 0 -1594z m582 1489 c0 -5 -5 -11 -11 -13 -6 -2 -11
4 -11 13 0 9 5 15 11 13 6 -2 11 -8 11 -13z m78 -344 c0 -6 -4 -13 -10 -16 -5
-3 -10 1 -10 9 0 9 5 16 10 16 6 0 10 -4 10 -9z m0 -41 c0 -5 -4 -10 -10 -10
-5 0 -10 5 -10 10 0 6 5 10 10 10 6 0 10 -4 10 -10z m0 -40 c0 -5 -4 -10 -10
-10 -5 0 -10 5 -10 10 0 6 5 10 10 10 6 0 10 -4 10 -10z m1320 -1022 c20 -43
20 -43 -1 -60 -12 -10 -31 -18 -43 -18 -42 0 -97 -22 -131 -52 -57 -50 -42
-76 30 -51 92 33 286 13 391 -40 108 -54 116 -69 133 -244 5 -51 16 -102 25
-115 8 -13 17 -35 20 -48 4 -29 24 -28 44 2 25 35 34 5 36 -124 2 -72 8 -134
15 -147 12 -22 3 -71 -31 -162 -5 -14 -29 -102 -54 -195 -24 -93 -46 -176 -49
-184 -2 -8 -15 -42 -28 -75 -14 -33 -38 -98 -53 -145 -15 -47 -37 -96 -48
-108 -12 -13 -19 -33 -18 -44 5 -27 -17 -68 -32 -62 -7 3 -20 -4 -30 -15 -14
-16 -15 -23 -6 -40 12 -24 4 -45 -15 -37 -15 5 -54 -34 -49 -49 4 -11 -32 -18
-241 -51 -55 -8 -120 -19 -145 -24 -145 -27 -175 -30 -189 -24 -19 9 -32 12
-84 20 -61 10 -65 22 -93 284 -9 84 -37 215 -56 263 -14 38 -17 62 -12 113 6
53 3 72 -15 114 l-22 50 23 53 c32 72 29 127 -10 204 -38 74 -50 134 -30 150
7 5 54 28 103 50 187 81 271 166 315 316 75 258 124 377 184 452 l24 30 12
-30 12 -30 16 22 c9 12 28 38 42 57 14 20 29 36 33 36 4 0 17 -19 27 -42z
m200 -108 c38 -34 35 -36 -30 -16 -26 8 -46 20 -48 30 -6 27 39 19 78 -14z
m-1990 -1580 c0 -5 -5 -10 -11 -10 -5 0 -7 5 -4 10 3 6 8 10 11 10 2 0 4 -4 4
-10z m280 -206 c0 -11 -6 -14 -20 -9 -17 5 -20 2 -20 -25 0 -27 3 -30 20 -25
14 4 20 2 20 -9 0 -12 -9 -15 -37 -13 -20 1 -38 -3 -40 -9 -2 -7 10 -11 33
-10 22 0 39 -4 41 -12 3 -7 -3 -11 -16 -10 -11 2 -20 -1 -20 -7 0 -5 9 -9 20
-8 11 2 19 -3 19 -11 0 -11 -10 -14 -39 -11 -29 3 -44 -1 -57 -16 -18 -20 -44
-26 -44 -10 0 5 4 11 9 13 5 2 3 9 -5 16 -8 7 -14 8 -14 2 0 -5 -7 -10 -15
-10 -18 0 -20 30 -2 31 10 0 10 2 0 6 -18 7 -16 33 2 33 8 0 15 -6 15 -12 0
-9 3 -9 9 1 5 8 7 21 4 29 -3 8 0 18 8 23 10 6 10 9 2 9 -21 0 -15 18 7 25 12
4 27 2 35 -5 10 -8 15 -8 20 1 4 6 2 15 -6 19 -8 6 -1 10 22 13 19 2 37 5 42
5 4 1 7 -5 7 -14z m36 -39 c1 -30 -3 -45 -11 -45 -8 0 -11 15 -10 48 4 58 4
57 12 48 4 -3 8 -27 9 -51z m71 33 c-3 -8 -6 -5 -6 6 -1 11 2 17 5 13 3 -3 4
-12 1 -19z m-107 -28 c0 -5 -4 -10 -10 -10 -5 0 -10 5 -10 10 0 6 5 10 10 10
6 0 10 -4 10 -10z m-193 -6 c-3 -3 -12 -4 -19 -1 -8 3 -5 6 6 6 11 1 17 -2 13
-5z m-120 -36 c-3 -8 -6 -5 -6 6 -1 11 2 17 5 13 3 -3 4 -12 1 -19z m161 4 c2
-7 -3 -12 -12 -12 -9 0 -16 7 -16 16 0 17 22 14 28 -4z m309 1 c3 -7 -7 -11
-26 -11 -17 1 -31 6 -31 12 0 16 52 14 57 -1z m-387 -3 c0 -5 -4 -10 -10 -10
-5 0 -10 5 -10 10 0 6 5 10 10 10 6 0 10 -4 10 -10z m460 0 c0 -5 -4 -10 -9
-10 -6 0 -13 5 -16 10 -3 6 1 10 9 10 9 0 16 -4 16 -10z m-497 -35 c-4 -14
-53 -14 -53 0 0 6 12 11 28 10 15 0 26 -4 25 -10z m75 -19 c0 -31 -3 -33 -28
-32 -42 2 -46 12 -14 40 38 33 42 32 42 -8z m232 19 c0 -8 -7 -15 -15 -15 -16
0 -20 12 -8 23 11 12 23 8 23 -8z m80 -6 c0 -5 -4 -9 -10 -9 -5 0 -10 7 -10
16 0 8 5 12 10 9 6 -3 10 -10 10 -16z m147 -6 c-3 -3 -11 -2 -17 2 -9 6 -9 10
1 16 14 8 27 -7 16 -18z m-572 -22 c3 -5 1 -12 -5 -16 -5 -3 -10 1 -10 9 0 18
6 21 15 7z m425 5 c0 -3 -4 -8 -10 -11 -5 -3 -10 -1 -10 4 0 6 5 11 10 11 6 0
10 -2 10 -4z m30 -12 c0 -8 -4 -12 -10 -9 -5 3 -10 10 -10 16 0 5 5 9 10 9 6
0 10 -7 10 -16z m80 1 c0 -8 -4 -15 -9 -15 -13 0 -22 16 -14 24 11 11 23 6 23
-9z m80 5 c0 -5 -5 -10 -11 -10 -5 0 -7 5 -4 10 3 6 8 10 11 10 2 0 4 -4 4
-10z m-500 -45 c0 -9 -6 -12 -15 -9 -8 4 -12 10 -9 15 8 14 24 10 24 -6z m150
5 c0 -5 -4 -10 -10 -10 -5 0 -10 5 -10 10 0 6 5 10 10 10 6 0 10 -4 10 -10z"/>
<path d="M1770 3154 c0 -8 5 -25 11 -36 10 -18 8 -25 -10 -39 -35 -29 -27 -55
18 -63 22 -3 42 -10 46 -15 3 -6 -6 -38 -19 -73 -35 -89 -38 -100 -42 -132
l-4 -28 87 6 c104 9 125 14 120 29 -4 13 -61 14 -121 2 l-40 -8 32 39 c17 21
42 64 56 95 13 31 31 59 38 62 8 3 36 -11 62 -32 41 -31 47 -40 42 -63 -6 -32
3 -34 53 -17 17 6 31 17 31 24 0 19 -117 116 -168 139 -23 10 -42 25 -42 33 0
13 -14 12 -72 -4 -12 -3 -18 1 -18 11 0 11 9 16 28 16 21 0 24 2 12 10 -8 5
-25 10 -38 10 -15 0 -26 9 -32 25 -11 28 -30 34 -30 9z"/>
<path d="M1311 2412 c12 -18 63 -52 80 -52 18 0 -11 40 -41 55 -40 21 -53 20
-39 -3z"/>
<path d="M1326 2073 c-11 -11 -6 -23 9 -23 8 0 15 4 15 9 0 13 -16 22 -24 14z"/>
<path d="M2215 1690 c3 -5 8 -10 11 -10 2 0 4 5 4 10 0 6 -5 10 -11 10 -5 0
-7 -4 -4 -10z"/>
<path d="M355 1469 c-4 -6 -3 -15 3 -21 6 -6 11 -4 15 6 7 18 -9 31 -18 15z"/>
<path d="M1893 4974 c-12 -13 -20 -30 -17 -38 3 -7 -2 -16 -10 -19 -9 -4 -16
-13 -16 -22 0 -8 -5 -15 -11 -15 -8 0 -8 -4 0 -14 9 -11 7 -15 -10 -19 -15 -4
-20 -11 -15 -22 3 -9 -1 -18 -10 -22 -8 -3 -13 -12 -10 -19 3 -7 -3 -18 -12
-23 -15 -9 -13 -10 8 -11 24 -1 25 -1 5 -16 -11 -8 -19 -22 -17 -30 2 -8 -3
-14 -10 -14 -8 0 -19 -13 -25 -30 -10 -28 -9 -30 10 -31 22 0 22 0 0 -9 -13
-5 -23 -16 -23 -24 0 -8 -6 -16 -12 -19 -10 -3 -10 -7 0 -19 10 -13 8 -16 -20
-22 -31 -7 -32 -8 -10 -16 12 -5 22 -16 22 -25 0 -8 3 -15 8 -15 4 0 7 -22 8
-48 0 -33 -3 -49 -12 -49 -7 0 -11 5 -7 10 3 5 -5 4 -17 -3 -20 -11 -21 -13
-7 -28 13 -13 19 -13 31 -2 13 10 16 10 16 -3 0 -9 -8 -21 -17 -26 -17 -10
-16 -10 2 -11 15 0 17 -2 6 -9 -9 -6 -10 -11 -2 -15 15 -9 31 1 31 20 0 9 6
14 13 11 13 -4 34 10 117 83 30 26 76 65 102 87 25 21 91 79 145 128 55 50
124 111 154 136 29 26 90 78 134 115 44 38 96 81 115 96 l35 28 -325 -1 -325
-1 -22 -24z m-13 -84 c0 -5 -2 -10 -4 -10 -3 0 -8 5 -11 10 -3 6 -1 10 4 10 6
0 11 -4 11 -10z m-110 -340 c0 -5 -4 -10 -10 -10 -5 0 -10 5 -10 10 0 6 5 10
10 10 6 0 10 -4 10 -10z m0 -80 c0 -5 -4 -10 -10 -10 -5 0 -10 5 -10 10 0 6 5
10 10 10 6 0 10 -4 10 -10z m0 -80 c0 -5 -4 -10 -10 -10 -5 0 -10 5 -10 10 0
6 5 10 10 10 6 0 10 -4 10 -10z m0 -30 c0 -5 -5 -10 -11 -10 -5 0 -7 5 -4 10
3 6 8 10 11 10 2 0 4 -4 4 -10z"/>
<path d="M2550 4950 c-13 -8 -12 -10 3 -10 9 0 17 5 17 10 0 12 -1 12 -20 0z"/>
<path d="M2480 4870 c0 -5 5 -10 10 -10 6 0 10 5 10 10 0 6 -4 10 -10 10 -5 0
-10 -4 -10 -10z"/>
<path d="M1670 4450 c0 -5 5 -10 10 -10 6 0 10 5 10 10 0 6 -4 10 -10 10 -5 0
-10 -4 -10 -10z"/>
<path d="M1682 4274 c-10 -12 -10 -14 2 -14 17 0 30 16 19 23 -5 3 -14 -1 -21
-9z"/>
<path d="M1810 4233 c-24 -12 -24 -13 -3 -13 12 0 25 5 28 11 11 16 2 17 -25
2z"/>
</g>
</svg>
